PathFileType	4	(X/Y/Z)	T1_P2_NoVision_Movement_2_0-733.trc
DataRate	CameraRate	NumFrames	NumMarkers	Units	OrigDataRate	OrigDataStartFrame	OrigNumFrames
60	60	6	27	m	60	0	733
Frame#	Time	RHip			RKnee			RAnkle			RBigToe			RSmallToe			RHeel			LHip			LKnee			LAnkle			LBigToe			LSmallToe			LHeel			Neck			Head			Nose			RShoulder			RElbow			RWrist			RThumb			RIndex			RPinky			LShoulder			LElbow			LWrist			LThumb			LIndex			LPinky		
		X1	Y1	Z1	X2	Y2	Z2	X3	Y3	Z3	X4	Y4	Z4	X5	Y5	Z5	X6	Y6	Z6	X7	Y7	Z7	X8	Y8	Z8	X9	Y9	Z9	X10	Y10	Z10	X11	Y11	Z11	X12	Y12	Z12	X13	Y13	Z13	X14	Y14	Z14	X15	Y15	Z15	X16	Y16	Z16	X17	Y17	Z17	X18	Y18	Z18	X19	Y19	Z19	X20	Y20	Z20	X21	Y21	Z21	X22	Y22	Z22	X23	Y23	Z23	X24	Y24	Z24	X25	Y25	Z25	X26	Y26	Z26	X27	Y27	Z27
1	0.0166666666666666	463.81694901090077	3627.8991852078657	543.6324932444758	874.3297960911884	3680.6492198414444	558.8430032164808	1255.259231615222	3724.932340663585	630.9634670259164	1333.46739130173	3628.2642117130686	612.5846277268857	1309.5213087266693	3637.9506128236	548.5826929527881	1271.425061938512	3683.3447179803916	626.9780901263936	459.4907608525254	3510.6702284964417	736.0016600906649	877.5289169175444	3549.1920351846748	749.6484907799338	1225.2211427276006	3587.194684869214	729.4976983692153	1328.1511730080808	3554.603660651165	682.8547790543818	1285.9088608969682	3479.392327740276	718.192533233926	1267.2634639904886	3613.8058798543925	723.8537671389295	-113.04467891673754	3540.06442374582	642.9216773225567	-373.36891718295163	3502.1376171389184	627.9863709150038	-224.75733669036518	3431.9543238366837	585.2735528528615	-35.187255362896565	3677.728846816389	539.9769052507498	199.86609635103267	3727.433843816401	473.5106338996039	422.3153808688824	3674.980236345183	411.75783957875643	524.7110264300791	3572.3457947055235	402.0814641891586	535.2620011819788	3589.2783128326973	389.0023592431413	543.9109429600526	3656.653437544139	391.8809478993565	-17.759056392385894	3554.575556709476	835.204086161016	239.46553135955043	3470.7951089968665	856.3190434386308	484.44243182657	3446.9537076519573	850.8791940183128	594.6771982595327	3432.0661570435905	817.4233288058984	604.2194679942372	3418.5857139102395	822.9588660956674	611.1361024250516	3434.898153266777	894.2925370132021
2	0.0333333333333333	464.09801089379766	3628.053814198005	543.5963141628665	872.0927446744533	3687.543673952342	563.2992187104284	1246.3737082584182	3720.8826687065975	629.3072942978906	1330.4110340091552	3623.869958036615	611.4165879516686	1309.841761127402	3642.9243532797686	553.0421545231312	1270.712988683576	3696.100468413748	634.4075405221943	461.4275647101832	3511.2195382309706	736.2504626829962	875.3831570281196	3546.5659342805307	747.7654612406089	1225.8543581881652	3588.6073896875205	730.050589145809	1327.5950430873445	3558.327895944327	684.565069182514	1283.7095848354431	3478.9483261025634	717.6713372420243	1269.778205121007	3615.236445231828	724.0961646612136	-116.3483909129029	3538.6672076692066	642.3230610515903	-372.22453476247165	3501.71348727708	626.5537778798598	-225.7642548229977	3431.3350122393704	585.1010247620346	-37.0418901701405	3675.3966589524616	538.971510197118	197.81760664152225	3730.880085074883	475.0475431458425	422.25256466824493	3674.9705027695404	411.7533575437977	524.6453530493027	3572.825715429588	402.15858121288585	534.4003996469993	3590.0957567944724	389.4396896556976	543.806903189273	3656.242993891572	391.51224202255594	-17.761197176254417	3554.5784566625607	835.1641420112433	235.30664140094717	3467.98695078459	855.9697137910314	484.4404888418116	3447.2148823894604	851.0224969953761	593.5174668419958	3440.554832698697	818.617733448147	605.428584044411	3426.0498787283723	825.6243586115811	610.5906652959592	3432.9721580263163	892.3759169803734
3	0.05	463.67602536545644	3627.846626206604	543.4943863422492	871.1537507730316	3691.5621983198234	565.8459864504038	1241.3831934432114	3718.6076302064844	628.4169846965344	1329.8573664690498	3624.507737523407	611.9696316495903	1311.6006588721718	3647.7962487723853	557.1967421652995	1271.3817292238552	3705.217013534195	640.4290955141983	462.2309999685956	3511.3669025695813	736.3750003284957	873.2281652148897	3542.33793623045	744.1929894174089	1226.78512296653	3590.9753854572973	731.0529743058526	1327.7291673519994	3560.8848433288154	685.65700810112	1282.263213994397	3478.7035580462384	717.3531521056873	1271.4502220255652	3616.27132766301	724.3207585001726	-119.12592579579416	3537.2229148466304	641.7007826042443	-371.7564440010756	3501.541773517517	626.018454187516	-225.85777001169384	3431.1270426788105	585.1299965265423	-38.70761742198103	3674.5030748226736	538.6383138256497	197.47204807834441	3733.4439584258453	476.0172426701772	422.2220240802661	3674.9439821251217	411.7391845637635	524.6203607536247	3573.40825915741	401.7650838271289	534.4020666215913	3590.397468684573	389.5097236789736	543.707060850725	3655.7561437506242	391.1420205857043	-17.760868538524047	3554.5993583968293	835.1535205416087	232.9220076838821	3465.2496753156465	855.4216869467341	484.4507235966095	3447.3978434308183	851.0966310578194	592.8507982826385	3448.0795542965316	819.3843356329779	606.6181528551878	3433.0433412281295	828.0320394658969	610.2052660421085	3431.995750795675	890.5362202524952
4	0.0666666666666666	461.9852278963191	3627.4376026112313	543.4521168194715	871.2331918910207	3693.827787217046	567.9045424161421	1239.969992513128	3717.7761113426454	628.2667368553978	1330.5501119598973	3628.2022522624247	613.3916993064354	1312.6653539203312	3650.16237963876	559.1913221935316	1272.9603010813148	3710.711187136999	643.8868857974386	461.3277622403053	3511.2203313072064	736.4856878910114	870.4582638670112	3536.504965560879	739.3122044960126	1226.755951754279	3593.060060396878	732.0928994766502	1327.955810781253	3561.74186070823	685.9912221822499	1281.7811347871532	3478.664056393523	717.2777617251128	1271.3208054992408	3616.313150058017	724.3910972575004	-120.98205701979379	3535.960943533143	641.1530564611505	-371.69126178718534	3501.5664379137497	625.8984236772486	-225.43514900426737	3431.407056132489	585.237082932861	-39.78941625035233	3675.526383790852	539.0306163631616	198.5691551249676	3734.8492702657095	476.3564175607079	422.2117956227088	3674.910363162035	411.7251545367184	524.6015500179349	3574.066543443506	400.78084136981903	535.1475783824126	3591.290614156453	389.50344875783	543.7077290385275	3655.6656620033827	391.1321496728777	-17.76174675036436	3554.6328516877497	835.1727696843388	232.62879200057836	3462.7172506912866	854.6713615290524	484.47396170469966	3447.4926437386252	851.1042144720458	592.8477633929621	3452.9596983578012	819.6296102136995	607.4614599243412	3437.853163045299	829.6133804939961	610.2777727701765	3433.1540736529723	889.6888577460983
5	0.0833333333333333	459.1986243384468	3627.563147649785	543.7636307964782	870.7340662098054	3695.757878332068	570.7156334320018	1239.7656869321866	3717.3023056853963	628.3819984187633	1330.192120819478	3631.0823771955547	613.9401875893521	1311.7014937831832	3650.0272464091563	558.6724070547884	1274.2323900957838	3713.367906776359	644.1793450313386	458.6760728891313	3511.2634148301763	736.7712710633397	867.4428189777398	3531.4088855671353	735.4916335754962	1225.458571785106	3593.204833026373	732.3863069028226	1327.465945573306	3561.2626011242564	685.8592283883966	1282.45477026733	3478.8735541528877	717.4929901930018	1269.6854916327284	3615.4085748231137	724.2492431382539	-121.50726715972564	3535.339102338091	640.8707392558114	-371.84403344453267	3501.8598303433137	625.6447510251242	-225.5463594635812	3432.2473955783794	585.0519610128565	-40.1577199331545	3678.937146431586	540.0098547408893	199.431915614417	3735.5720182264176	476.65352551918045	422.1894044372599	3674.9192147253852	411.7387452783275	524.5211308416942	3574.4458480697144	399.82240410682147	536.0399714993425	3593.8232722578605	389.8357967573343	544.0844522792302	3657.254490939032	392.3958205895476	-17.776049955797074	3554.6672030750906	835.1988360874534	233.3103908905303	3460.5454730359197	853.8033178569108	484.4944904465593	3447.537203494033	851.1153731889083	592.9596915547354	3455.1326071622625	819.7958999608755	607.7563598339855	3439.7721974127885	830.1942903668642	610.786245215817	3436.141318723937	890.1121982422688
6	0.1	456.31518360829887	3628.6607077902863	544.5125536053599	868.8565586124039	3696.809498459199	573.1184482689982	1239.3441718236136	3716.853573821977	628.3870885011257	1328.76767358248	3632.689548608692	613.1557643973786	1310.9076629993392	3651.2927708287734	558.2786104166046	1274.2500177131103	3712.4277526322157	641.4194127749033	455.07529305613804	3511.670689927898	737.1753693153124	865.6357486257482	3529.6152405996854	734.679934477981	1224.3948124180026	3591.5137115559655	731.7364134374918	1326.5712806310498	3560.4107603101265	685.6266465716661	1284.068675087192	3479.346110430451	717.9372374293438	1268.0623321340054	3614.3938439420626	724.0284852172886	-120.61926217541145	3535.527988934463	640.9197386618758	-372.41271955761493	3502.6106215529244	625.2941786831855	-226.68413498420313	3433.737222840808	584.2940221332736	-40.105500488047966	3684.613654957907	541.4146604714192	199.08296010195713	3737.0928529527337	478.1155915198619	422.1440278992727	3675.019714782549	411.8005941254019	524.4246999142263	3574.4929826236803	399.8600157359376	536.6494958616731	3597.29379207716	390.4618742244995	545.07690207977	3661.470695922867	395.615062925253	-17.807433677612043	3554.704962524038	835.2177964555491	233.89018866478463	3459.4074258600767	853.1529839456972	484.49494384523575	3447.5459223718763	851.1976165667917	592.4840768030577	3455.724064719012	820.1429823512523	607.6766619618548	3439.9602645104383	830.206155205905	611.404672098058	3439.7138887332108	890.7450330578691
